<svg width="32" height="32" viewBox="0 0 32 32" fill="none" xmlns="http://www.w3.org/2000/svg">
<g id="material-symbols:android">
<path id="Vector" d="M1.33337 23.9996C1.53337 21.6218 2.26137 19.4329 3.51737 17.4329C4.77337 15.4329 6.44537 13.8441 8.53337 12.6663L6.06671 8.39961C5.93337 8.19961 5.90004 7.9885 5.96671 7.76628C6.03337 7.54405 6.17782 7.37739 6.40004 7.26628C6.57782 7.15516 6.77782 7.13294 7.00004 7.19961C7.22226 7.26628 7.40004 7.39961 7.53337 7.59961L10 11.8663C11.9112 11.0663 13.9112 10.6663 16 10.6663C18.0889 10.6663 20.0889 11.0663 22 11.8663L24.4667 7.59961C24.6 7.39961 24.7778 7.26628 25 7.19961C25.2223 7.13294 25.4223 7.15516 25.6 7.26628C25.8223 7.37739 25.9667 7.54405 26.0334 7.76628C26.1 7.9885 26.0667 8.19961 25.9334 8.39961L23.4667 12.6663C25.5556 13.8441 27.2276 15.4329 28.4827 17.4329C29.7378 19.4329 30.4658 21.6218 30.6667 23.9996H1.33337ZM9.33337 20.3329C9.80004 20.3329 10.1947 20.1716 10.5174 19.8489C10.84 19.5263 11.0009 19.1321 11 18.6663C10.9992 18.2005 10.8378 17.8058 10.516 17.4823C10.1943 17.1587 9.80004 16.9978 9.33337 16.9996C8.86671 17.0014 8.47204 17.1627 8.14937 17.4836C7.82671 17.8045 7.66582 18.1987 7.66671 18.6663C7.6676 19.1338 7.82893 19.5285 8.15071 19.8503C8.47249 20.1721 8.86671 20.3329 9.33337 20.3329ZM22.6667 20.3329C23.1334 20.3329 23.528 20.1716 23.8507 19.8489C24.1734 19.5263 24.3343 19.1321 24.3334 18.6663C24.3325 18.2005 24.1712 17.8058 23.8494 17.4823C23.5276 17.1587 23.1334 16.9978 22.6667 16.9996C22.2 17.0014 21.8054 17.1627 21.4827 17.4836C21.16 17.8045 20.9992 18.1987 21 18.6663C21.0009 19.1338 21.1623 19.5285 21.484 19.8503C21.8058 20.1721 22.2 20.3329 22.6667 20.3329Z" fill="#111111"/>
</g>
</svg>
